<?xml version="1.0" standalone="no"?>
<!DOCTYPE svg PUBLIC "-//W3C//DTD SVG 20010904//EN"
 "http://www.w3.org/TR/2001/REC-SVG-20010904/DTD/svg10.dtd">
<svg version="1.0" xmlns="http://www.w3.org/2000/svg"
 width="310.000000pt" height="322.000000pt" viewBox="0 0 310.000000 322.000000"
 preserveAspectRatio="xMidYMid meet">

<g transform="translate(0.000000,322.000000) scale(0.100000,-0.100000)"
fill="#000000" stroke="none">
<path d="M2752 2859 c-34 -13 -49 -53 -29 -82 19 -30 48 -38 78 -23 65 33 21
131 -49 105z m53 -54 c0 -27 -3 -30 -30 -30 -21 0 -31 5 -33 18 -6 33 6 49 35
45 24 -3 28 -8 28 -33z"/>
<path d="M912 2365 c-40 -18 -72 -80 -50 -100 56 -51 796 -693 805 -698 8 -5
150 112 395 324 491 426 443 378 424 423 -28 68 0 66 -813 66 -608 -1 -733 -3
-761 -15z"/>
</g>
</svg>
